<?xml version="1.0" encoding="UTF-8"?>
<svg width="512" height="512" viewBox="0 0 512 512" fill="none" xmlns="http://www.w3.org/2000/svg">
  <path fill="#E7ECF5" d="M144 56H368C416.601 56 456 95.3989 456 144V368C456 416.601 416.601 456 368 456H144C95.3989 456 56 416.601 56 368V144C56 95.3989 95.3989 56 144 56Z"/>
  <path fill="#D4DBE8" d="M144 80H368C403.346 80 432 108.654 432 144V368C432 403.346 403.346 432 368 432H144C108.654 432 80 403.346 80 368V144C80 108.654 108.654 80 144 80Z"/>

  <path fill="#FF5F6D" d="M146 320C146 263.667 191.667 218 248 218H266C317.915 218 360 260.085 360 312C360 352.869 326.869 386 286 386H212C175.549 386 146 356.451 146 320Z"/>
  <path fill="#FFB347" d="M190 240C215 222 247 212 280 214C247 230 224 255 210 290C199 281 192 268 190 240Z"/>
  <path fill="#56CCF2" d="M228 382C255 371 280 352 301 326C316 307 329 285 339 261C350 281 356 301 356 320C356 356.451 326.451 386 290 386H244C238.506 386 233.171 384.61 228 382Z"/>
  <path fill="#6FCF97" d="M153 300C162 277 177 257 197 242C202 260 210 275 222 286C214 304 210 322 210 340C184 339 164 326 153 300Z"/>

  <path fill="#F8FAFD" d="M251 140C261.493 129.507 278.507 129.507 289 140L321 172C331.493 182.493 331.493 199.507 321 210L227 304L181 317L194 271L251 214L216 179L251 140Z"/>
  <path fill="#C8D1E0" d="M181 317L194 271L209 286L181 317Z"/>
  <path fill="#D9E1EC" d="M251 140L267 156L232 191L216 179L251 140Z"/>
  <path fill="#B8C2D3" d="M267 156L305 194L289 210L251 172L267 156Z"/>

  <path fill="#FF5F6D" d="M175 301C175 292.163 182.163 285 191 285C199.837 285 207 292.163 207 301C207 309.837 199.837 317 191 317C182.163 317 175 309.837 175 301Z"/>
  <path fill="#FFB347" d="M206 333C206 326.373 211.373 321 218 321C224.627 321 230 326.373 230 333C230 339.627 224.627 345 218 345C211.373 345 206 339.627 206 333Z"/>
  <path fill="#56CCF2" d="M248 348C248 342.477 252.477 338 258 338C263.523 338 268 342.477 268 348C268 353.523 263.523 358 258 358C252.477 358 248 353.523 248 348Z"/>
</svg>
